<svg version="1.1" xmlns="http://www.w3.org/2000/svg" viewBox="0 0 1407 736">
<path d="M0 0 C99.33 0 198.66 0 301 0 C321.7 72.46 321.7 72.46 329.52 100.02 C330.71 104.21 331.9 108.41 333.09 112.6 C334.83 118.74 336.57 124.87 338.31 131 C342.86 147.02 347.41 163.04 351.95 179.06 C353.14 183.24 354.33 187.42 355.52 191.6 C362.84 217.4 370.17 243.2 377.5 269 C387.92 305.66 398.33 342.33 408.74 378.99 C412.07 390.74 415.41 402.48 418.74 414.22 C418.98 415.06 419.22 415.89 419.46 416.76 C420.66 420.98 421.86 425.21 423.06 429.43 C425.22 437.03 427.37 444.62 429.53 452.22 C430.73 456.44 431.93 460.66 433.12 464.88 C433.6 466.56 434.08 468.25 434.56 469.94 C434.8 470.77 435.04 471.61 435.28 472.47 C443.67 502 452.05 531.53 460.44 561.06 C460.67 561.9 460.91 562.73 461.16 563.59 C461.64 565.28 462.11 566.97 462.59 568.66 C463.79 572.88 464.99 577.1 466.19 581.32 C468.33 588.87 470.48 596.43 472.62 603.98 C473.8 608.14 474.99 612.31 476.17 616.47 C476.52 617.71 476.52 617.71 476.88 618.97 C480.2 630.66 483.52 642.35 486.85 654.03 C488.73 660.63 490.61 667.22 492.48 673.82 C494.01 679.2 495.55 684.58 497.08 689.96 C498.03 693.28 498.97 696.6 499.92 699.91 C500.35 701.45 500.79 702.98 501.23 704.51 C501.83 706.62 502.43 708.72 503.03 710.83 C503.36 712 503.7 713.18 504.04 714.39 C505.15 718.56 506.06 722.78 507 727 C407.67 727 308.34 727 206 727 C190.26 671.63 174.53 616.27 158.81 560.9 C155.96 550.87 153.11 540.84 150.27 530.8 C150.03 529.97 149.79 529.13 149.55 528.27 C148.34 524.04 147.14 519.81 145.94 515.58 C143.78 507.98 141.63 500.38 139.47 492.78 C138.27 488.56 137.07 484.34 135.88 480.12 C135.4 478.44 134.92 476.75 134.44 475.06 C134.2 474.23 133.96 473.39 133.72 472.53 C108.56 383.94 108.56 383.94 107.84 381.41 C107.36 379.72 106.89 378.03 106.41 376.34 C105.21 372.13 104.01 367.91 102.81 363.69 C100.66 356.09 98.5 348.49 96.34 340.9 C95.14 336.67 93.94 332.45 92.74 328.22 C92.5 327.39 92.27 326.55 92.02 325.69 C88.69 313.96 85.36 302.23 82.03 290.49 C79.89 282.98 77.76 275.46 75.62 267.94 C75.39 267.11 75.15 266.28 74.91 265.42 C69.21 245.35 63.51 225.27 57.8 205.19 C57.42 203.82 57.42 203.82 57.02 202.43 C54.39 193.18 51.77 183.94 49.14 174.7 C43.97 156.49 38.8 138.28 33.63 120.08 C32.87 117.42 32.12 114.76 31.37 112.1 C31.12 111.23 30.87 110.36 30.62 109.47 C30.12 107.72 29.63 105.98 29.13 104.24 C27.92 99.97 26.71 95.7 25.5 91.43 C20.88 75.17 16.27 58.9 11.61 42.65 C11.02 40.6 10.43 38.55 9.84 36.5 C8.07 30.32 6.3 24.14 4.52 17.96 C3.91 15.84 3.3 13.72 2.69 11.6 C2.41 10.64 2.14 9.68 1.85 8.7 C1.48 7.4 1.48 7.4 1.1 6.08 C0.89 5.34 0.67 4.59 0.45 3.82 C0 2 0 2 0 0 Z " fill="#7F7F7F" transform="translate(406,0)"></path>
<path d="M0 0 C99 0 198 0 300 0 C318.29 62.86 318.29 62.86 324.84 86.25 C327.11 94.38 329.41 102.51 331.7 110.64 C331.94 111.52 332.19 112.39 332.44 113.29 C339.39 137.98 346.42 162.64 353.44 187.31 C354.11 189.67 354.78 192.03 355.45 194.39 C358.1 203.69 360.75 213 363.4 222.31 C369.04 242.14 374.67 261.96 380.3 281.79 C381 284.25 381.7 286.71 382.39 289.16 C384.23 295.62 386.06 302.07 387.89 308.53 C391.17 320.07 394.44 331.6 397.72 343.14 C397.96 343.98 398.19 344.82 398.44 345.68 C399.65 349.92 400.85 354.17 402.05 358.41 C404.21 366.01 406.37 373.62 408.53 381.22 C409.73 385.44 410.93 389.66 412.12 393.88 C412.6 395.56 413.08 397.25 413.56 398.94 C413.8 399.77 414.04 400.61 414.28 401.47 C439.44 490.06 439.44 490.06 440.16 492.59 C440.64 494.28 441.11 495.97 441.59 497.66 C442.79 501.88 443.99 506.09 445.19 510.31 C447.34 517.9 449.5 525.5 451.65 533.09 C452.85 537.3 454.05 541.52 455.25 545.73 C455.48 546.57 455.72 547.4 455.96 548.26 C459.09 559.27 462.21 570.28 465.34 581.29 C467.03 587.24 468.72 593.19 470.4 599.14 C471.6 603.35 472.79 607.55 473.98 611.75 C479.14 629.95 484.32 648.15 489.54 666.34 C490.33 669.07 491.11 671.81 491.9 674.55 C492.41 676.33 492.92 678.12 493.44 679.91 C493.69 680.79 493.94 681.66 494.19 682.56 C495.67 687.71 497.15 692.87 498.64 698.02 C499.55 701.17 500.45 704.33 501.36 707.49 C501.78 708.96 502.2 710.42 502.63 711.89 C503.2 713.88 503.77 715.88 504.35 717.88 C504.67 718.99 504.99 720.11 505.32 721.26 C506 724 506 724 506 727 C407 727 308 727 206 727 C204.14 722.04 202.44 717.36 201 712.31 C200.83 711.68 200.65 711.06 200.46 710.42 C199.87 708.35 199.29 706.29 198.7 704.22 C198.28 702.73 197.85 701.24 197.43 699.75 C196.27 695.7 195.12 691.66 193.97 687.61 C192.75 683.29 191.52 678.98 190.29 674.67 C187.44 664.67 184.6 654.68 181.76 644.68 C180.54 640.37 179.31 636.06 178.08 631.74 C172.83 613.26 167.58 594.78 162.34 576.29 C158.98 564.44 155.61 552.59 152.25 540.73 C152.01 539.9 151.77 539.06 151.53 538.2 C150.33 533.99 149.13 529.77 147.94 525.56 C145.78 517.97 143.62 510.37 141.47 502.78 C140.27 498.56 139.07 494.34 137.88 490.12 C137.4 488.44 136.92 486.75 136.44 485.06 C136.2 484.23 135.96 483.39 135.72 482.53 C112 399 88.28 315.47 63.84 229.41 C63.36 227.72 62.89 226.03 62.41 224.34 C61.21 220.12 60.01 215.91 58.81 211.69 C56.66 204.1 54.5 196.51 52.35 188.92 C51.15 184.71 49.96 180.5 48.76 176.29 C48.52 175.46 48.29 174.63 48.04 173.77 C44.9 162.69 41.75 151.61 38.61 140.53 C36.9 134.51 35.2 128.5 33.49 122.48 C32.29 118.24 31.08 114.01 29.88 109.77 C24.9 92.19 19.9 74.61 14.84 57.05 C14.12 54.56 13.4 52.06 12.68 49.56 C12.33 48.35 12.33 48.35 11.98 47.11 C11.51 45.51 11.05 43.9 10.59 42.29 C9.26 37.66 7.92 33.03 6.58 28.41 C5.76 25.58 4.95 22.76 4.14 19.93 C3.58 18.01 3.02 16.09 2.46 14.17 C2.14 13.03 1.81 11.89 1.47 10.71 C1.19 9.72 0.9 8.73 0.6 7.71 C0 5 0 5 0 0 Z " fill="#7F7F7F" transform="translate(880,0)"></path>
<path d="M0 0 C0.66 0 1.32 0 2 0 C2.25 0.89 2.5 1.79 2.76 2.71 C18.78 59.5 34.89 116.27 51.04 173.02 C51.39 174.23 51.73 175.44 52.09 176.68 C52.78 179.11 53.47 181.53 54.16 183.95 C58.59 199.52 63.02 215.1 67.44 230.67 C67.93 232.42 68.43 234.17 68.93 235.91 C71.03 243.32 73.13 250.73 75.23 258.14 C79.95 274.82 84.71 291.48 89.53 308.13 C91.1 313.55 92.67 318.98 94.23 324.4 C95.72 329.56 97.22 334.71 98.72 339.86 C99.64 343.01 100.55 346.16 101.45 349.3 C101.88 350.76 102.3 352.22 102.73 353.68 C103.32 355.66 103.89 357.66 104.46 359.65 C104.78 360.76 105.11 361.87 105.44 363.02 C106.37 367.98 105 371.39 102.7 375.75 C102.22 376.65 101.75 377.56 101.26 378.5 C100.74 379.47 100.22 380.44 99.69 381.44 C99.15 382.46 98.61 383.48 98.05 384.53 C94.02 392.17 89.87 399.74 85.71 407.3 C81.18 415.59 76.85 423.98 72.53 432.38 C68 441.2 63.35 449.93 58.56 458.61 C54.07 466.79 49.8 475.07 45.54 483.36 C40.78 492.63 35.9 501.83 30.86 510.95 C30.4 511.77 29.95 512.58 29.49 513.43 C29.1 514.12 28.72 514.82 28.32 515.53 C26.47 518.98 24.75 522.5 23 526 C-76.33 526 -175.66 526 -278 526 C-276.67 522.02 -275.68 519.13 -273.71 515.62 C-273.25 514.8 -272.79 513.97 -272.32 513.12 C-271.82 512.24 -271.33 511.35 -270.81 510.44 C-265.88 501.54 -261.15 492.55 -256.5 483.5 C-251.65 474.06 -246.69 464.68 -241.56 455.39 C-237.41 447.83 -233.44 440.17 -229.5 432.5 C-224.65 423.06 -219.69 413.68 -214.56 404.39 C-210.41 396.83 -206.44 389.17 -202.5 381.5 C-197.65 372.06 -192.69 362.68 -187.56 353.39 C-183.41 345.83 -179.44 338.17 -175.5 330.5 C-170.65 321.06 -165.69 311.68 -160.56 302.39 C-156.41 294.83 -152.44 287.17 -148.5 279.5 C-143.65 270.06 -138.69 260.68 -133.56 251.39 C-129.41 243.83 -125.44 236.17 -121.5 228.5 C-116.65 219.06 -111.69 209.68 -106.56 200.39 C-102.41 192.83 -98.44 185.17 -94.5 177.5 C-89.65 168.06 -84.69 158.68 -79.56 149.39 C-75.41 141.83 -71.44 134.17 -67.5 126.5 C-62.62 117.01 -57.64 107.59 -52.49 98.25 C-48.54 91.06 -44.76 83.79 -41 76.5 C-36.33 67.43 -31.55 58.44 -26.62 49.51 C-21.68 40.51 -17 31.39 -12.34 22.25 C-3.66 5.31 -3.66 5.31 0 0 Z " fill="#FABF3D" transform="translate(298,201)"></path>
</svg>
